#!OML:ASF H:\Male1\Project 1\Capture day 1\Session 1\Male1.ASF
:FULLY-SPECIFIED
:DEGREES
476
root -20.0247 14.7484 -2.82007 -719.916 -5.19155 -17.7278
lowerback 10.0319 1.00769 7.85479
upperback 7.76395 1.89787 -1.81595
thorax 2.88861 1.33236 -6.46777
lowerneck 3.10607 9.45326 14.554
upperneck 2.67196 13.4907 -17.056
head 2.4561 6.79924 -7.18202
rclavicle -1.51076e-014 -7.95139e-014
rhumerus -0.87178 -25.4259 -14.4916
rradius 53.4325
rwrist -31.3794
rhand -39.6868 2.11206
rfingers 7.12502
rthumb -12.6658 -27.4839
lclavicle -1.51076e-014 -7.95139e-014
lhumerus -37.4184 25.642 42.4152
lradius 27.1732
lwrist 12.0779
lhand -27.9924 26.6161
lfingers 7.12502
lthumb -1.37856 56.5914
rfemur 6.54926 -4.63053 35.9168
rtibia 32.5967
rfoot -9.60617 -19.9144
rtoes -37.6424
lfemur -28.5049 -1.98854 -19.3538
ltibia 49.4882
lfoot -20.2035 5.24509
ltoes -8.76558
477
root -20.1531 14.7631 -2.46456 -719.951 -3.98272 -17.8999
lowerback 9.26222 1.07179 8.03982
upperback 7.64684 1.94306 -1.75764
thorax 3.20079 1.37322 -6.49075
lowerneck 2.94479 9.54196 14.1937
upperneck 2.65845 13.5998 -17.3599
head 2.49389 6.84056 -7.20409
rclavicle -1.11319e-014 -1.59028e-014
rhumerus -0.0129081 -25.637 -14.3741
rradius 52.7542
rwrist -30.7459
rhand -39.6528 2.11299
rfingers 7.12502
rthumb -12.633 -27.485
lclavicle -1.11319e-014 -1.59028e-014
lhumerus -38.5139 26.3167 40.2096
lradius 27.3548
lwrist 12.257
lhand -28.2771 26.8482
lfingers 7.12502
lthumb -1.65353 56.8216
rfemur 6.43786 -5.19734 35.558
rtibia 34.8578
rfoot -6.7999 -17.2755
rtoes -38.1459
lfemur -27.0308 -2.31717 -20.1747
ltibia 45.9492
lfoot -19.3566 5.20769
ltoes -2.59584
478
root -20.2702 14.7541 -2.11476 -720.074 -2.87662 -17.8659
lowerback 8.66771 1.13063 8.07028
upperback 7.51554 1.98416 -1.76842
thorax 3.39684 1.40143 -6.50464
lowerneck 2.75752 9.64165 13.8741
upperneck 2.62001 13.7236 -17.7016
head 2.53701 6.88846 -7.24187
rclavicle -8.74653e-015 0
rhumerus 0.883207 -25.8679 -13.932
rradius 51.9812
rwrist -30.2469
rhand -39.6309 2.03267
rfingers 7.12502
rthumb -12.612 -27.5666
lclavicle -8.74653e-015 0
lhumerus -39.7663 26.857 37.783
lradius 27.5766
lwrist 12.3423
lhand -28.4623 26.9425
lfingers 7.12502
lthumb -1.83244 56.9144
rfemur 5.68561 -5.75885 34.7268
rtibia 38.3114
rfoot -4.06415 -14.041
rtoes -38.5253
lfemur -25.2477 -2.75181 -21.0646
ltibia 43.2776
lfoot -18.6091 5.26083
ltoes 5.08422
479
root -20.3795 14.716 -1.77263 -720.351 -1.85012 -17.5703
lowerback 8.35073 1.18249 7.88109
upperback 7.38622 2.02719 -1.88319
thorax 3.43512 1.41684 -6.51308
lowerneck 2.59491 9.73976 13.7065
upperneck 2.53067 13.8502 -18.0946
head 2.57673 6.94116 -7.32143
rclavicle 3.97569e-014 -5.08889e-014
rhumerus 1.74353 -26.087 -13.1984
rradius 51.0688
rwrist -29.8319
rhand -39.5696 1.79511
rfingers 7.12502
rthumb -12.5529 -27.8078
lclavicle 3.97569e-014 -5.08889e-014
lhumerus -41.0968 27.1505 35.1332
lradius 27.819
lwrist 12.3143
lhand -28.5103 27.0071
lfingers 7.12502
lthumb -1.87879 56.9786
rfemur 4.44856 -6.21033 33.4492
rtibia 42.7516
rfoot -1.66218 -10.6154
rtoes -38.8178
lfemur -23.1186 -3.4297 -22.0508
ltibia 41.3378
lfoot -18.3427 5.33751
ltoes 13.7721
480
root -20.4832 14.6499 -1.44014 -720.792 -0.80063 -16.9153
lowerback 8.36313 1.19088 7.36326
upperback 7.26914 2.0219 -2.14071
thorax 3.28439 1.39019 -6.49462
lowerneck 2.5119 9.83652 13.7064
upperneck 2.34912 13.9778 -18.5194
head 2.59175 7.00179 -7.4432
rclavicle 7.15625e-015 1.59028e-014
rhumerus 2.54105 -26.2839 -12.2788
rradius 50.0314
rwrist -29.4776
rhand -39.5308 1.56816
rfingers 7.12502
rthumb -12.5154 -28.037
lclavicle 7.15625e-015 1.59028e-014
lhumerus -42.4481 27.2072 32.2417
lradius 28.0502
lwrist 12.1449
lhand -28.4359 27.3133
lfingers 7.12502
lthumb -1.80688 57.2854
rfemur 2.84318 -6.48611 31.7345
rtibia 47.9134
rfoot -0.0197543 -7.78775
rtoes -38.7984
lfemur -20.7384 -4.40309 -23.2922
ltibia 39.9538
lfoot -18.8098 5.60688
ltoes 21.0056
481
root -20.5827 14.5626 -1.11843 -721.333 0.341735 -15.8365
lowerback 8.67675 1.14539 6.435
upperback 7.17514 1.93998 -2.56607
thorax 2.96646 1.3075 -6.42537
lowerneck 2.52608 9.93548 13.8443
upperneck 2.05528 14.1061 -18.9451
head 2.5693 7.07183 -7.59449
rclavicle -2.8625e-014 -6.36111e-015
rhumerus 3.21659 -26.48 -11.2719
rradius 48.9343
rwrist -29.1929
rhand -39.5395 1.45647
rfingers 7.12502
rthumb -12.5238 -28.1482
lclavicle -2.8625e-014 -6.36111e-015
lhumerus -43.7349 27.0723 29.1645
lradius 28.2524
lwrist 11.9117
lhand -28.3071 27.8926
lfingers 7.12502
lthumb -1.68256 57.8657
rfemur 0.9147 -6.52136 29.6172
rtibia 53.4667
rfoot 0.567341 -6.31038
rtoes -39.078
lfemur -18.2731 -5.74768 -24.8929
ltibia 39.0046
lfoot -19.9432 6.15101
ltoes 25.7123
482
root -20.6793 14.4627 -0.809283 -721.853 1.6246 -14.3954
lowerback 9.21023 1.05815 5.1491
upperback 7.1119 1.78047 -3.14484
thorax 2.54288 1.1755 -6.31382
lowerneck 2.64164 10.028 14.0772
upperneck 1.61469 14.2166 -19.3588
head 2.49183 7.1431 -7.76721
rclavicle -1.35174e-014 -5.40694e-014
rhumerus 3.67286 -26.7373 -10.2321
rradius 47.8466
rwrist -29.001
rhand -39.6544 1.06709
rfingers 7.12502
rthumb -12.6346 -28.5308
lclavicle -1.35174e-014 -5.40694e-014
lhumerus -44.8326 26.8889 25.9842
lradius 28.3987
lwrist 11.6483
lhand -28.1687 28.7433
lfingers 7.12502
lthumb -1.5488 58.7174
rfemur -1.38722 -6.22894 27.2631
rtibia 59.0771
rfoot 0.0134945 -6.56576
rtoes -39.5167
lfemur -15.9661 -7.31914 -26.8256
ltibia 38.4466
lfoot -21.426 6.84207
ltoes 28.216
483
root -20.7704 14.364 -0.51249 -722.266 3.0243 -12.8376
lowerback 9.89028 0.949525 3.75036
upperback 7.08963 1.56817 -3.79221
thorax 2.08289 1.019 -6.20613
lowerneck 2.82167 10.1032 14.3201
upperneck 1.06116 14.2925 -19.7544
head 2.36572 7.20404 -7.94526
rclavicle 1.43125e-014 -2.22639e-014
rhumerus 3.85742 -27.1128 -9.17487
rradius 46.7983
rwrist -28.9111
rhand -39.9006 0.989889
rfingers 7.12502
rthumb -12.8719 -28.5932
lclavicle 1.43125e-014 -2.22639e-014
lhumerus -45.661 26.7576 22.8612
lradius 28.4851
lwrist 11.4501
lhand -28.1603 29.8073
lfingers 7.12502
lthumb -1.5407 59.7814
rfemur -4.08277 -5.47184 25.0414
rtibia 64.3704
rfoot -1.432 -8.57771
rtoes -39.6842
lfemur -13.9745 -8.85766 -28.8237
ltibia 38.2687
lfoot -22.9219 7.39313
ltoes 28.9025
484
root -20.8542 14.2776 -0.226229 -722.525 4.47343 -11.4034
lowerback 10.6122 0.850471 2.47315
upperback 7.1349 1.35411 -4.41729
thorax 1.68627 0.873597 -6.14052
lowerneck 3.03417 10.1671 14.5242
upperneck 0.389131 14.3366 -20.1461
head 2.19276 7.25464 -8.12393
rclavicle 7.95139e-015 1.59028e-014
rhumerus 3.76298 -27.6746 -8.1069
rradius 45.7659
rwrist -28.8806
rhand -40.1479 0.989557
rfingers 7.12502
rthumb -13.1103 -28.5783
lclavicle 7.95139e-015 1.59028e-014
lhumerus -46.1575 26.7891 19.9788
lradius 28.513
lwrist 11.3786
lhand -28.2585 30.7666
lfingers 7.12502
lthumb -1.63559 60.7401
rfemur -7.16273 -4.15555 23.2416
rtibia 69.0033
rfoot -3.39875 -11.8484
rtoes -38.5323
lfemur -12.3447 -10.191 -30.6121
ltibia 38.4157
lfoot -24.0277 7.75501
ltoes 28.26
485
root -20.9287 14.21 0.053891 -722.667 5.88788 -10.3509
lowerback 11.3078 0.764567 1.52642
upperback 7.25689 1.16659 -4.90704
thorax 1.40292 0.757237 -6.11892
lowerneck 3.26003 10.2457 14.6699
upperneck -0.317637 14.3947 -20.5837
head 2.01088 7.31494 -8.3097
rclavicle -1.51076e-014 -2.8625e-014
rhumerus 3.51654 -28.3939 -7.08791
rradius 44.6973
rwrist -28.8724
rhand -40.3782 0.828732
rfingers 7.12502
rthumb -13.3324 -28.7248
lclavicle -1.51076e-014 -2.8625e-014
lhumerus -46.4168 26.9805 17.4666
lradius 28.519
lwrist 11.4861
lhand -28.4674 31.4965
lfingers 7.12502
lthumb -1.83729 61.4683
rfemur -10.5173 -2.20495 22.1296
rtibia 72.6535
rfoot -5.44118 -15.494
rtoes -36.3693
lfemur -10.9756 -11.2468 -31.8878
ltibia 38.7593
lfoot -24.7795 7.43132
ltoes 28.1612
486
root -20.9919 14.167 0.33392 -722.702 7.27544 -9.73104
lowerback 11.8996 0.699563 0.932707
upperback 7.42899 1.03007 -5.21707
thorax 1.24376 0.679111 -6.10897
lowerneck 3.52963 10.3394 14.7698
upperneck -0.999791 14.478 -21.0825
head 1.83635 7.39181 -8.50948
rclavicle -1.11319e-014 8.90555e-014
rhumerus 3.15458 -29.1707 -6.11447
rradius 43.5529
rwrist -28.8781
rhand -40.5346 0.145907
rfingers 7.12502
rthumb -13.4831 -29.3976
lclavicle -1.11319e-014 8.90555e-014
lhumerus -46.4811 27.2651 15.4282
lradius 28.4957
lwrist 11.6525
lhand -28.742 31.9981
lfingers 7.12502
lthumb -2.10258 61.9675
rfemur -13.9919 0.279692 21.6395
rtibia 75.0697
rfoot -7.28707 -18.585
rtoes -34.0764
lfemur -9.74912 -12.1311 -32.6024
ltibia 39.1169
lfoot -25.3409 6.92905
ltoes 27.3601
487
root -21.043 14.1489 0.619303 -722.671 8.68066 -9.47225
lowerback 12.3638 0.633335 0.584031
upperback 7.63115 0.914641 -5.36378
thorax 1.19137 0.618787 -6.0632
lowerneck 3.8434 10.4633 14.857
upperneck -1.58889 14.6168 -21.6095
head 1.69405 7.49865 -8.71386
rclavicle -1.51076e-014 -1.90833e-014
rhumerus 2.79532 -29.9478 -5.30753
rradius 42.2987
rwrist -28.8808
rhand -40.5661 -0.765019
rfingers 7.12502
rthumb -13.5134 -30.3066
lclavicle -1.51076e-014 -1.90833e-014
lhumerus -46.4457 27.5819 13.8044
lradius 28.4301
lwrist 11.7517
lhand -28.981 32.3226
lfingers 7.12502
lthumb -2.33332 62.2896
rfemur -17.3748 3.06672 21.5166
rtibia 76.0818
rfoot -8.82645 -20.5314
rtoes -32.8177
lfemur -8.51498 -13.0139 -32.8518
ltibia 39.3282
lfoot -25.7385 6.25897
ltoes 26.4795
488
root -21.0793 14.1558 0.91344 -722.58 10.2071 -9.43545
lowerback 12.704 0.535471 0.370033
upperback 7.83762 0.773228 -5.39493
thorax 1.20875 0.548475 -5.96439
lowerneck 4.19876 10.6111 14.9475
upperneck -2.05184 14.8074 -22.1251
head 1.5912 7.63214 -8.9119
rclavicle 1.03368e-014 -1.90833e-014
rhumerus 2.44949 -30.6753 -4.71478
rradius 40.9853
rwrist -28.9167
rhand -40.415 -1.56033
rfingers 7.12502
rthumb -13.3678 -31.1115
lclavicle 1.03368e-014 -1.90833e-014
lhumerus -46.366 27.9325 12.4951
lradius 28.2992
lwrist 11.6422
lhand -29.1813 32.5915
lfingers 7.12502
lthumb -2.5268 62.5563
rfemur -20.4791 5.84019 21.4682
rtibia 75.6227
rfoot -10.4014 -21.314
rtoes -32.5286
lfemur -7.21906 -13.9491 -32.8376
ltibia 39.3148
lfoot -25.9049 5.48802
ltoes 25.5278
